#!OML:ASF X:\für Bonn\!DataBase\2005_08_12_Daniel\c3d\Daniel.ASF
:FULLY-SPECIFIED
:DEGREES
3142
root -3.46343 16.9891 -3.15891 318.585 -80.8754 -328.395
lowerback 19.2922 -2.32667 -2.75631
upperback 1.9999 -4.15805 -3.56585
thorax -8.71609 -2.03482 -1.19571
lowerneck 9.50958 6.34812 1.17067
upperneck 4.2359 8.39329 -1.43985
head -0.132672 4.15476 -0.864546
rclavicle -2.25621e-014 -1.55052e-014
rhumerus 53.8755 -3.96244 -102.779
rradius 8.68244
rwrist 70.6267
rhand -19.2103 11.9635
rfingers 7.12502
rthumb 7.10216 -17.8973
lclavicle -2.25621e-014 -1.55052e-014
lhumerus 59.2419 -5.12755 84.428
lradius 9.58629
lwrist -56.1742
lhand -14.3878 4.16706
lfingers 7.12502
lthumb 11.7551 33.8172
rfemur 1.08588 3.10687 13.9117
rtibia 33.4548
rfoot -33.7528 -12.74
rtoes -12.6237
lfemur -8.74907 -11.5411 -20.6265
ltibia 37.5814
lfoot -23.1127 0.881641
ltoes -3.01081
3143
root -3.44792 16.9519 -3.16087 318.86 -80.8705 -328.874
lowerback 19.7463 -2.35398 -2.71497
upperback 2.1135 -4.20593 -3.53924
thorax -8.84112 -2.05879 -1.16084
lowerneck 9.51744 6.08913 0.92701
upperneck 4.45085 8.01888 -1.24846
head -0.0898138 3.95912 -0.75249
rclavicle -1.73937e-014 -7.55382e-015
rhumerus 53.8801 -3.88157 -102.58
rradius 8.85544
rwrist 70.5341
rhand -19.2377 11.9339
rfingers 7.12502
rthumb 7.07572 -17.9278
lclavicle -1.73937e-014 -7.55382e-015
lhumerus 59.3454 -5.0765 84.4431
lradius 9.49457
lwrist -56.0783
lhand -14.6062 4.1636
lfingers 7.12502
lthumb 11.5445 33.8257
rfemur 0.574019 1.72972 13.4833
rtibia 34.4913
rfoot -33.2454 -11.5832
rtoes -12.7596
lfemur -9.16503 -10.8781 -20.4318
ltibia 38.4605
lfoot -23.1472 0.11589
ltoes -2.92614
3144
root -3.43145 16.9086 -3.16215 319.157 -80.8545 -329.365
lowerback 20.2169 -2.38191 -2.6582
upperback 2.2296 -4.25329 -3.52538
thorax -8.97366 -2.08342 -1.14757
lowerneck 9.47787 5.82982 0.736253
upperneck 4.64379 7.65053 -1.07925
head -0.0417725 3.76803 -0.655067
rclavicle 0 -3.18055e-015
rhumerus 53.9699 -3.8257 -102.389
rradius 8.98888
rwrist 70.4088
rhand -19.1717 11.8673
rfingers 7.12502
rthumb 7.13938 -17.9923
lclavicle 0 -3.18055e-015
lhumerus 59.5122 -5.04635 84.4471
lradius 9.33446
lwrist -56.0405
lhand -14.9242 4.14014
lfingers 7.12502
lthumb 11.2378 33.8191
rfemur 0.0120397 0.395363 13.0546
rtibia 35.6345
rfoot -32.8639 -10.3282
rtoes -12.7218
lfemur -9.64693 -10.2479 -20.2478
ltibia 39.4395
lfoot -23.2469 -0.594053
ltoes -2.92039
3145
root -3.41503 16.8606 -3.16301 319.353 -80.8505 -329.777
lowerback 20.7387 -2.40178 -2.62471
upperback 2.34203 -4.29725 -3.50536
thorax -9.13494 -2.10499 -1.1128
lowerneck 9.4249 5.57705 0.562967
upperneck 4.81926 7.29309 -0.909903
head 0.00492764 3.58299 -0.561135
rclavicle 2.85753e-015 2.78299e-014
rhumerus 54.1119 -3.7403 -102.211
rradius 9.06019
rwrist 70.2574
rhand -19.1846 11.7962
rfingers 7.12502
rthumb 7.12692 -18.0638
lclavicle 2.85753e-015 2.78299e-014
lhumerus 59.7109 -5.01475 84.4593
lradius 9.15683
lwrist -55.9726
lhand -15.2594 4.12842
lfingers 7.12502
lthumb 10.9145 33.8247
rfemur -0.579928 -0.930538 12.611
rtibia 36.8863
rfoot -32.495 -9.0862
rtoes -12.8244
lfemur -10.1536 -9.62086 -20.0675
ltibia 40.5147
lfoot -23.3837 -1.34284
ltoes -2.82957
3146
root -3.39821 16.8075 -3.16209 319.59 -80.8508 -330.222
lowerback 21.263 -2.42734 -2.55933
upperback 2.46512 -4.34122 -3.48748
thorax -9.2871 -2.12816 -1.09798
lowerneck 9.35511 5.3311 0.346789
upperneck 4.90733 6.94264 -0.710926
head 0.0259446 3.40193 -0.453385
rclavicle 7.62836e-015 -1.59028e-015
rhumerus 54.3533 -3.6569 -102.029
rradius 9.09867
rwrist 70.1015
rhand -19.1167 11.7698
rfingers 7.12502
rthumb 7.19254 -18.088
lclavicle 7.62836e-015 -1.59028e-015
lhumerus 59.9823 -4.98169 84.4704
lradius 8.9576
lwrist -55.8454
lhand -15.5252 4.0681
lfingers 7.12502
lthumb 10.6582 33.7778
rfemur -1.23602 -2.26831 12.156
rtibia 38.2511
rfoot -32.1602 -7.82566
rtoes -12.8551
lfemur -10.724 -9.02969 -19.8935
ltibia 41.6981
lfoot -23.5708 -2.01935
ltoes -2.75353
